<?xml version="1.0" encoding="UTF-8"?>
<svg id="Layer_2" data-name="Layer 2" xmlns="http://www.w3.org/2000/svg" viewBox="0 0 282.93 246.09">
  <defs>
    <style>
      .cls-1 {
        stroke-width: 0px;
      }
    </style>
  </defs>
  <path class="cls-1" d="m210.19,246.09H72.73c-1.43,0-2.75-.76-3.46-2L.54,125.05c-.71-1.24-.71-2.76,0-4L69.27,2c.71-1.24,2.04-2,3.46-2h137.46c1.43,0,2.75.76,3.46,2l68.73,119.05c.71,1.24.71,2.76,0,4l-68.73,119.05c-.71,1.24-2.04,2-3.46,2Zm-135.15-8h132.84l66.42-115.05L207.88,8H75.04L8.62,123.05l66.42,115.05Z"/>
  <path class="cls-1" d="m135.27,227.56h-52.22c-1.44,0-2.76-.77-3.47-2.02L22.24,125.03c-.7-1.23-.7-2.75,0-3.98L80.47,20c.71-1.24,2.04-2,3.47-2h67.78c2.21,0,4,1.79,4,4s-1.79,4-4,4h-65.47L30.32,123.06l55.05,96.5h43.09l-23.52-42.19-16.17.19s-.03,0-.05,0c-2.19,0-3.97-1.76-4-3.95-.03-2.21,1.74-4.02,3.95-4.05l18.56-.22c1.48-.05,2.83.77,3.54,2.05l28,50.22c.69,1.24.67,2.75-.04,3.97-.72,1.22-2.03,1.97-3.45,1.97Z"/>
  <path class="cls-1" d="m123.71,75.78H55.5c-2.21,0-4-1.79-4-4s1.79-4,4-4h68.21c2.21,0,4,1.79,4,4s-1.79,4-4,4Z"/>
  <path class="cls-1" d="m96.82,126.78H25.71c-2.21,0-4-1.79-4-4s1.79-4,4-4h71.11c2.21,0,4,1.79,4,4s-1.79,4-4,4Z"/>
  <path class="cls-1" d="m199.92,227.56h-49.99c-1.42,0-2.73-.75-3.45-1.98-.72-1.22-.73-2.74-.04-3.98l48.67-86.89c1.08-1.93,3.51-2.62,5.45-1.54,1.93,1.08,2.61,3.52,1.54,5.44l-45.33,80.93h40.86l56.13-96.51-54.24-93.06-54.58,95.05c-1.1,1.92-3.54,2.58-5.46,1.48-1.92-1.1-2.58-3.54-1.48-5.46l58.02-101.05c.71-1.24,2.03-2,3.46-2.01h.01c1.42,0,2.74.76,3.46,1.99l58.89,101.05c.72,1.24.73,2.78,0,4.03l-58.46,100.51c-.72,1.23-2.03,1.99-3.46,1.99Z"/>
</svg>