<?xml version="1.0" standalone="no"?>
<!DOCTYPE svg PUBLIC "-//W3C//DTD SVG 20010904//EN"
 "http://www.w3.org/TR/2001/REC-SVG-20010904/DTD/svg10.dtd">
<svg version="1.0" xmlns="http://www.w3.org/2000/svg"
 width="1044.000000pt" height="909.000000pt" viewBox="0 0 1044.000000 909.000000"
 preserveAspectRatio="xMidYMid meet">

<g transform="translate(0.000000,909.000000) scale(0.100000,-0.100000)"
fill="#000000" stroke="none">
<path d="M2615 9057 c-37 -21 -122 -165 -1322 -2242 -1233 -2134 -1282 -2222
-1282 -2270 -1 -36 7 -64 27 -100 15 -27 587 -1020 1271 -2205 862 -1494 1255
-2166 1282 -2193 l38 -37 2588 0 2589 0 32 23 c26 17 299 483 1309 2232 702
1216 1280 2227 1285 2247 5 26 4 50 -5 75 -14 41 -2513 4376 -2555 4432 -49
66 161 61 -2654 61 l-2563 0 -40 -23z m6279 -2391 l1226 -2124 -1223 -2118
-1223 -2119 -2453 0 -2452 0 -1223 2119 -1224 2119 48 81 c26 45 571 988 1210
2096 640 1108 1172 2027 1182 2043 l19 27 2443 0 2444 0 1226 -2124z"/>
<path d="M3025 8376 c-16 -7 -37 -22 -46 -32 -9 -11 -472 -809 -1029 -1774
-557 -965 -1044 -1808 -1083 -1873 -65 -111 -69 -121 -64 -165 3 -33 19 -71
53 -127 27 -44 515 -887 1084 -1873 827 -1433 1041 -1797 1066 -1813 30 -18
61 -19 1035 -19 978 0 1005 1 1036 20 66 40 87 110 56 181 -16 35 -965 1775
-1021 1871 -8 14 -32 36 -52 47 -36 20 -51 21 -417 21 -350 0 -381 -1 -413
-19 -47 -25 -74 -73 -74 -132 0 -54 21 -91 67 -119 30 -19 52 -20 353 -20
l321 0 426 -777 426 -778 -786 -3 c-433 -1 -790 1 -794 5 -9 10 -1949 3372
-1956 3389 -4 12 189 14 1193 14 1155 0 1200 1 1230 19 63 38 83 139 41 202
-49 74 46 69 -1279 69 -654 0 -1188 2 -1188 3 0 6 881 1531 892 1545 8 9 273
12 1260 12 l1250 0 39 39 c25 25 40 49 41 67 4 90 -17 135 -77 164 -40 20 -66
20 -1189 20 -915 0 -1147 3 -1143 13 3 6 203 354 444 772 l439 760 1230 5
c1202 5 1230 5 1262 25 35 21 72 86 72 126 0 13 -9 43 -20 67 -15 33 -29 47
-62 62 -42 19 -76 20 -1318 19 -1036 0 -1281 -2 -1305 -13z"/>
<path d="M7265 8368 c-37 -22 -111 -148 -1112 -1898 -1027 -1796 -1073 -1877
-1073 -1925 0 -92 54 -145 150 -145 43 0 55 5 85 33 22 21 385 647 1031 1777
548 960 998 1746 999 1748 4 5 1975 -3405 1975 -3416 0 -6 -460 -806 -1023
-1779 l-1023 -1768 -748 -3 c-597 -2 -747 0 -743 10 3 7 384 683 847 1503 749
1324 843 1496 847 1541 9 93 -46 154 -140 154 -57 0 -94 -19 -123 -63 -11 -18
-428 -755 -927 -1638 -847 -1500 -907 -1609 -907 -1653 0 -58 21 -101 63 -126
31 -19 58 -20 998 -20 l966 0 33 23 c25 17 260 417 1081 1837 577 998 1066
1842 1086 1875 61 98 57 117 -68 331 -57 98 -545 941 -1084 1873 -732 1264
-988 1700 -1013 1719 -48 37 -123 41 -177 10z"/>
</g>
</svg>
