<?xml version="1.0" encoding="utf-8"?>
<svg width="650" height="200" viewBox="0 0 650 200" id="howdy" xmlns="http://www.w3.org/2000/svg">
    <path stroke="#FFF" fill="transparent" stroke-width="2" d="M 103.66 18.214 L 56.159 70.796" id="path-8" style="stroke-opacity: 0.5;" transform="matrix(-1, 0, 0, -1, 159.81901, 89.009997)"/>
    <path stroke="#FFF" stroke-width="2" d="M 103.978 71.665 L 51.845 20.493" id="path-9" style="fill: rgb(239, 239, 239); stroke-opacity: 0.5;"/>
    <ellipse style="stroke: rgb(255, 255, 255); fill: none; fill-rule: nonzero; stroke-opacity: 0.5;" cx="78.265" cy="46.476" rx="9.707" ry="9.707"/>

    <path stroke="#FFF" fill="transparent" stroke-width="2" d="M 255.281 18.731 L 207.78 71.313" id="path-6" style="stroke-opacity: 0.5;" transform="matrix(-1, 0, 0, -1, 463.061005, 90.044001)"/>
    <path stroke="#FFF" fill="transparent" stroke-width="2" d="M 255.599 72.182 L 203.466 21.01" id="path-7" style="stroke-opacity: 0.5;"/>
    <ellipse style="stroke: rgb(255, 255, 255); fill: none; fill-rule: nonzero; stroke-opacity: 0.5;" cx="229.886" cy="46.993" rx="9.707" ry="9.707"/>
    <line style="fill: rgb(216, 216, 216); stroke: rgb(255, 255, 255); stroke-opacity: 0.5;" x1="215.26" y1="46.867" x2="244.659" y2="47.179"/>
    <line style="fill: rgb(216, 216, 216); stroke: rgb(255, 255, 255); stroke-opacity: 0.5;" x1="229.419" y1="34.369" x2="229.616" y2="60.339" transform="matrix(-1, 0, 0, -1, 459.035004, 94.707999)"/>

    <path stroke="#FFF" fill="transparent" stroke-width="2" d="M 41.309 0 L 41.309 70.996 L 37.256 70.996 L 37.256 35.4 L 4.004 35.4 L 4.004 70.996 L 0 70.996 L 0 0 L 4.004 0 L 4.004 31.348 L 37.256 31.348 L 37.256 0 L 41.309 0 Z" id="0"/>
        <path stroke="#FFF" fill="transparent" stroke-width="2" d="M 78.711 71.289 Q 71.875 71.289 66.235 67.871 Q 60.596 64.453 57.251 58.765 A 24.258 24.258 0 0 1 53.906 46.24 Q 53.906 39.355 57.251 33.667 A 25.614 25.614 0 0 1 66.211 24.585 A 23.699 23.699 0 0 1 78.711 21.191 Q 85.498 21.191 91.138 24.585 Q 96.777 27.979 100.146 33.667 Q 103.516 39.355 103.516 46.24 Q 103.516 51.367 101.563 55.933 A 25.59 25.59 0 0 1 96.24 63.916 Q 92.871 67.334 88.354 69.312 A 23.779 23.779 0 0 1 78.711 71.289 Z M 78.711 67.236 A 20.112 20.112 0 0 0 89.16 64.429 A 20.95 20.95 0 0 0 96.68 56.86 A 20.533 20.533 0 0 0 99.457 46.787 A 24.352 24.352 0 0 0 99.463 46.24 A 21.23 21.23 0 0 0 98.056 38.464 A 20.053 20.053 0 0 0 96.68 35.62 Q 93.896 30.859 89.185 28.052 A 20.073 20.073 0 0 0 78.711 25.244 A 20.073 20.073 0 0 0 68.237 28.052 A 21.207 21.207 0 0 0 60.718 35.62 A 20.425 20.425 0 0 0 57.914 45.83 A 24.219 24.219 0 0 0 57.91 46.24 A 20.599 20.599 0 0 0 60.693 56.787 A 21.147 21.147 0 0 0 68.188 64.404 Q 72.9 67.236 78.711 67.236 Z" id="1"/>
        <path stroke="#FFF" fill="transparent" stroke-width="2" d="M 114.697 48.096 L 114.697 23.633 L 118.701 23.633 Q 118.701 42.888 118.739 46.501 A 40.778 40.778 0 0 0 118.75 47.217 A 23.485 23.485 0 0 0 119.418 52.893 A 20.981 20.981 0 0 0 120.044 54.956 A 21.75 21.75 0 0 0 122.583 59.951 A 19.764 19.764 0 0 0 123.584 61.279 Q 125.977 64.111 129.077 65.527 A 15.185 15.185 0 0 0 135.449 66.943 A 15.185 15.185 0 0 0 141.821 65.527 Q 144.922 64.111 147.314 61.279 A 20.394 20.394 0 0 0 150.652 55.621 A 23.244 23.244 0 0 0 150.903 54.956 A 22.155 22.155 0 0 0 152.162 48.564 A 25.778 25.778 0 0 0 152.197 47.217 L 152.246 45.654 L 152.246 23.633 L 156.25 23.633 L 156.25 47.363 A 26.086 26.086 0 0 0 157.238 53.937 A 19.969 19.969 0 0 0 161.133 61.279 Q 163.525 64.111 166.626 65.527 A 15.185 15.185 0 0 0 172.998 66.943 A 15.185 15.185 0 0 0 179.37 65.527 Q 182.471 64.111 184.863 61.279 A 20.394 20.394 0 0 0 188.201 55.621 A 23.244 23.244 0 0 0 188.452 54.956 A 22.155 22.155 0 0 0 189.711 48.564 A 25.778 25.778 0 0 0 189.746 47.217 L 189.746 23.633 L 193.799 23.633 L 193.799 48.193 Q 193.262 57.568 187.988 63.867 A 20.669 20.669 0 0 1 183.456 67.889 A 18.661 18.661 0 0 1 181.03 69.214 A 19.267 19.267 0 0 1 172.998 70.996 Q 168.896 70.996 164.99 69.214 A 19.471 19.471 0 0 1 159.024 64.938 A 23.086 23.086 0 0 1 158.057 63.867 A 28.444 28.444 0 0 1 156.061 61.137 A 25.45 25.45 0 0 1 155.664 60.498 Q 154.661 58.827 154.266 57.669 A 7.198 7.198 0 0 1 154.248 57.617 Q 153.953 58.405 153.404 59.434 A 30.383 30.383 0 0 1 152.808 60.498 A 25.308 25.308 0 0 1 150.939 63.243 A 28.749 28.749 0 0 1 150.439 63.867 A 20.669 20.669 0 0 1 145.907 67.889 A 18.661 18.661 0 0 1 143.481 69.214 A 19.515 19.515 0 0 1 137.139 70.923 A 18.327 18.327 0 0 1 135.498 70.996 A 19.267 19.267 0 0 1 127.466 69.214 A 19.487 19.487 0 0 1 121.328 64.783 A 22.997 22.997 0 0 1 120.508 63.867 Q 115.186 57.52 114.697 48.096 Z" id="2"/>
        <path stroke="#FFF" fill="transparent" stroke-width="2" d="M 250.928 32.568 L 250.928 1.758 L 254.932 1.758 L 254.932 71.045 L 250.928 71.045 L 250.928 59.912 A 16.604 16.604 0 0 1 248.262 63.469 Q 246.858 64.921 244.986 66.289 A 34.965 34.965 0 0 1 242.896 67.7 A 23.675 23.675 0 0 1 230.078 71.289 A 23.699 23.699 0 0 1 217.578 67.896 A 25.614 25.614 0 0 1 208.618 58.813 Q 205.273 53.125 205.273 46.24 Q 205.273 39.307 208.618 33.618 Q 211.963 27.93 217.578 24.561 Q 223.193 21.191 230.078 21.191 A 23.796 23.796 0 0 1 242.896 24.756 A 31.292 31.292 0 0 1 246.433 27.287 Q 249.422 29.781 250.928 32.568 Z M 230.078 67.236 Q 235.791 67.236 240.503 64.404 Q 245.215 61.572 248.022 56.787 A 20.461 20.461 0 0 0 250.83 46.24 Q 250.83 40.43 248.047 35.645 Q 245.264 30.859 240.527 28.052 A 20.112 20.112 0 0 0 230.078 25.244 A 20.073 20.073 0 0 0 219.604 28.052 Q 214.893 30.859 212.085 35.645 A 20.552 20.552 0 0 0 209.277 46.24 A 20.461 20.461 0 0 0 212.085 56.787 A 21.344 21.344 0 0 0 219.604 64.404 A 19.941 19.941 0 0 0 230.078 67.236 Z" id="3"/>
        <path stroke="#FFF" fill="transparent" stroke-width="2" d="M 282.129 87.891 L 277.734 87.939 A 2176.475 2176.475 0 0 0 278.503 86.082 Q 279.453 83.785 279.964 82.532 A 236.51 236.51 0 0 0 280.078 82.251 A 1189.563 1189.563 0 0 0 280.399 81.461 Q 280.707 80.699 280.925 80.158 A 257.962 257.962 0 0 0 281.104 79.712 A 180.008 180.008 0 0 1 281.787 78.027 A 508.531 508.531 0 0 1 281.981 77.53 Q 282.302 76.707 282.824 75.374 A 3192.745 3192.745 0 0 1 282.837 75.342 A 295.413 295.413 0 0 1 283.235 74.332 Q 283.692 73.18 284.336 71.574 A 1318.557 1318.557 0 0 1 284.961 70.02 L 264.453 23.633 L 268.848 23.633 L 287.061 64.844 L 303.516 23.633 L 307.861 23.633 L 282.129 87.891 Z" id="4"/>
        <path stroke="#FFF" fill="transparent" stroke-width="2" d="M 324.121 71.24 L 322.021 75.098 L 318.799 73.291 L 319.873 71.338 Q 320.605 71.094 320.605 70.996 L 320.557 70.996 A 2.563 2.563 0 0 1 318.729 70.242 A 3.364 3.364 0 0 1 318.677 70.19 A 2.683 2.683 0 0 1 317.871 68.249 A 3.383 3.383 0 0 1 317.871 68.213 A 2.684 2.684 0 0 1 318.601 66.364 A 3.476 3.476 0 0 1 318.652 66.309 Q 319.58 65.479 320.801 65.479 A 3.964 3.964 0 0 1 322.675 65.961 A 5.37 5.37 0 0 1 323.437 66.455 Q 324.707 67.432 324.707 69.141 A 3.764 3.764 0 0 1 324.561 70.154 Q 324.442 70.58 324.226 71.031 A 6.796 6.796 0 0 1 324.121 71.24 Z" id="5"/>
    <ellipse style="stroke: rgb(255, 255, 255); fill: none; fill-rule: nonzero; stroke-opacity: 0.5;" cx="514.494" cy="166.091" rx="9.707" ry="9.707"/>
    <line style="fill: rgb(216, 216, 216); stroke: rgb(255, 255, 255); stroke-opacity: 0.5;" x1="499.868" y1="165.965" x2="529.267" y2="166.277"/>
    <line style="fill: rgb(216, 216, 216); stroke: rgb(255, 255, 255); stroke-opacity: 0.5;" x1="514.027" y1="153.467" x2="514.224" y2="179.437" transform="matrix(-1, 0, 0, -1, 1028.250946, 332.904013)"/>
    <path stroke="#FFF" fill="transparent" stroke-width="2" d="M 417.994 137.998 L 370.493 190.58" id="path-2" style="stroke-opacity: 0.5;" transform="matrix(-1, 0, 0, -1, 788.486993, 328.578015)"/>
    <path stroke="#FFF" stroke-width="2" d="M 418.312 191.449 L 366.179 140.277" id="path-3" style="fill: rgb(239, 239, 239); stroke-opacity: 0.5;"/>
    <ellipse style="stroke: rgb(255, 255, 255); fill: none; fill-rule: nonzero; stroke-opacity: 0.5;" cx="392.599" cy="166.26" rx="9.707" ry="9.707"/>
    <path stroke="#FFF" fill="transparent" stroke-width="2" d="M 628.952 138.026 L 581.451 190.608" id="path-4" style="stroke-opacity: 0.5;" transform="matrix(-1, 0, 0, -1, 1210.403035, 328.634003)"/>
    <path stroke="#FFF" fill="transparent" stroke-width="2" d="M 629.27 191.477 L 577.137 140.305" id="path-5" style="stroke-opacity: 0.5;"/>
    <ellipse style="stroke: rgb(255, 255, 255); fill: none; fill-rule: nonzero; stroke-opacity: 0.5;" cx="603.557" cy="166.288" rx="9.707" ry="9.707"/>

    <path stroke="#FFF" fill="transparent" stroke-width="2" d="M 6.822 120.049 L 6.822 191.045 L 2.818 191.045 L 2.818 120.049 L 6.822 120.049 Z" id="7"/>
    <path stroke="#FFF" fill="transparent" stroke-width="2" d="M 20.592 120.098 L 20.592 138.945 L 16.588 138.945 L 16.588 120.098 L 20.592 120.098 Z" id="8"/>
    <path stroke="#FFF" fill="transparent" stroke-width="2" d="M 109.361 165.313 L 109.361 191.045 L 105.357 191.045 L 105.357 166.24 C 105.379 163.632 105.014 161.035 104.274 158.534 C 103.469 155.867 102.163 153.379 100.426 151.201 C 99.528 150.07 98.493 149.056 97.344 148.181 C 96.596 147.616 95.797 147.123 94.957 146.709 C 92.987 145.719 90.814 145.201 88.609 145.195 C 86.433 145.202 84.287 145.703 82.334 146.662 C 82.302 146.678 82.269 146.693 82.237 146.709 C 80.585 147.525 79.091 148.629 77.825 149.968 C 77.447 150.363 77.086 150.774 76.744 151.201 C 75.214 153.154 74.018 155.417 73.155 157.988 C 72.403 160.259 71.976 162.625 71.887 165.015 C 71.87 165.423 71.861 165.832 71.861 166.24 L 71.861 191.045 L 67.857 191.045 L 67.809 166.24 C 67.819 164.079 67.564 161.925 67.05 159.826 C 66.896 159.206 66.718 158.593 66.515 157.988 C 65.952 156.286 65.196 154.653 64.262 153.123 C 63.853 152.458 63.407 151.816 62.926 151.201 C 62.004 150.039 60.935 149.002 59.747 148.115 C 59.02 147.577 58.245 147.106 57.433 146.709 C 55.981 145.988 54.42 145.513 52.813 145.302 C 52.248 145.231 51.679 145.195 51.109 145.195 C 48.933 145.202 46.787 145.703 44.834 146.662 C 44.802 146.678 44.769 146.693 44.737 146.709 C 43.085 147.525 41.591 148.629 40.325 149.968 C 39.947 150.363 39.586 150.774 39.244 151.201 C 37.218 153.794 35.797 156.807 35.084 160.02 C 34.743 161.504 34.517 163.012 34.41 164.531 L 34.41 191.045 L 30.357 191.045 L 30.357 143.633 L 34.41 143.633 L 34.41 151.006 C 34.453 150.938 34.497 150.872 34.543 150.806 C 34.75 150.506 35.131 149.98 35.686 149.229 C 35.814 149.056 35.942 148.884 36.07 148.711 C 37.194 147.322 38.482 146.073 39.905 144.992 C 40.889 144.25 41.943 143.607 43.053 143.071 C 45.657 141.818 48.326 141.191 51.061 141.191 C 53.854 141.197 56.609 141.84 59.117 143.071 C 61.181 144.077 63.049 145.442 64.634 147.104 C 65.131 147.618 65.603 148.154 66.051 148.711 C 67.841 150.99 69.11 153.187 69.859 155.303 C 70.22 154.254 70.676 153.24 71.221 152.274 C 71.868 151.109 72.668 149.922 73.619 148.711 C 74.743 147.322 76.03 146.073 77.453 144.992 C 78.437 144.25 79.492 143.607 80.602 143.071 C 83.206 141.818 85.875 141.191 88.609 141.191 C 91.295 141.2 93.947 141.802 96.373 142.956 C 96.455 142.994 96.536 143.032 96.617 143.071 C 98.622 144.048 100.446 145.359 102.01 146.949 C 102.569 147.51 103.099 148.098 103.6 148.711 C 106.191 152.005 107.95 155.874 108.728 159.992 C 109.076 161.747 109.287 163.526 109.361 165.313 Z" id="9"/>
    <path stroke="#FFF" fill="transparent" stroke-width="2" d="M 183.043 120.049 L 214.293 191.045 L 209.996 190.996 L 196.813 161.211 L 165.807 161.211 L 152.525 190.996 L 148.18 190.996 C 148.927 189.304 149.681 187.614 150.441 185.927 C 152.324 181.75 153.834 178.533 154.971 176.276 C 155.098 176.023 155.227 175.77 155.357 175.518 C 155.61 175.012 155.858 174.503 156.102 173.992 C 156.363 173.445 156.619 172.895 156.871 172.344 C 157.168 171.711 157.455 171.073 157.733 170.432 C 158.642 168.349 159.888 165.334 161.473 161.387 C 161.992 160.092 162.509 158.797 163.023 157.5 L 179.625 120.049 L 183.043 120.049 Z M 167.564 157.158 L 195.055 157.158 L 181.334 126.152 L 167.564 157.158 Z" id="11"/>
    <path stroke="#FFF" fill="transparent" stroke-width="2" d="M 225.865 121.758 L 225.865 191.045 L 221.813 191.045 L 221.813 121.758 L 225.865 121.758 Z" id="12"/>
    <path stroke="#FFF" fill="transparent" stroke-width="2" d="M 278.746 146.025 L 280.943 147.832 L 254.186 184.502 C 257.018 185.999 260.11 186.748 263.463 186.748 C 264.295 186.747 265.126 186.698 265.953 186.602 C 271.141 185.972 275.894 183.388 279.243 179.376 C 279.439 179.151 279.631 178.923 279.82 178.691 L 281.041 177.08 L 284.215 179.57 C 279.495 186.081 273.57 189.759 266.441 190.605 C 265.47 190.733 264.492 190.799 263.512 190.801 C 263.479 190.801 263.447 190.801 263.414 190.801 C 260.712 190.801 258.067 190.353 255.479 189.458 C 252.923 188.564 250.53 187.26 248.394 185.596 C 248.322 185.541 248.251 185.486 248.18 185.43 C 242.743 180.937 239.618 175.371 238.805 168.73 C 238.674 167.743 238.608 166.748 238.609 165.752 C 238.609 163.017 239.049 160.34 239.928 157.72 C 240.805 155.132 242.101 152.706 243.765 150.539 C 243.82 150.466 243.876 150.394 243.932 150.322 C 245.891 147.873 248.256 145.779 250.925 144.131 C 253.841 142.369 257.1 141.251 260.484 140.85 C 261.332 140.763 262.184 140.715 263.037 140.705 C 263.163 140.704 263.288 140.703 263.414 140.703 C 266.129 140.705 268.825 141.15 271.397 142.021 C 274.059 142.922 276.545 144.277 278.746 146.025 Z M 250.621 182.256 L 250.768 182.402 L 275.426 148.564 C 274.037 147.545 272.513 146.724 270.897 146.125 C 270.546 145.993 270.192 145.87 269.835 145.757 C 267.736 145.09 265.612 144.756 263.463 144.756 C 262.833 144.757 262.204 144.784 261.577 144.838 C 261.359 144.857 261.141 144.878 260.924 144.902 C 255.869 145.491 251.222 147.963 247.908 151.825 C 247.633 152.132 247.365 152.445 247.105 152.764 C 245.643 154.651 244.512 156.772 243.761 159.038 C 243.036 161.219 242.665 163.502 242.662 165.801 C 242.663 166.633 242.712 167.465 242.809 168.291 C 243.411 173.566 246.021 178.406 250.096 181.809 C 250.269 181.96 250.444 182.109 250.621 182.256 Z" id="13"/>
    <path stroke="#FFF" fill="transparent" stroke-width="2" d="M 324.742 190.996 L 320.152 191.045 C 319.618 190.137 319.083 189.228 318.549 188.32 C 317.518 186.57 316.637 185.075 315.906 183.836 C 315.605 183.326 315.303 182.815 315.001 182.305 C 314.729 181.845 314.457 181.385 314.185 180.925 C 313.658 180.036 313.203 179.267 312.819 178.62 C 312.659 178.351 312.5 178.081 312.34 177.812 C 311.889 177.053 311.443 176.29 311.003 175.524 C 310.862 175.278 310.722 175.032 310.582 174.785 C 310.419 174.496 310.256 174.208 310.092 173.92 C 309.721 173.267 309.278 172.496 308.764 171.605 C 308.516 171.175 308.268 170.746 308.019 170.317 C 307.71 169.784 307.4 169.252 307.089 168.72 C 306.073 166.977 304.796 164.8 303.258 162.188 L 297.984 168.193 L 297.984 191.045 L 293.98 191.045 L 293.98 121.758 L 297.984 121.758 L 297.984 162.09 C 299.761 160.11 301.218 158.475 302.356 157.185 C 302.486 157.038 302.615 156.89 302.745 156.743 C 303.933 155.392 304.804 154.408 305.357 153.789 C 305.734 153.337 306.114 152.889 306.497 152.443 C 306.63 152.289 306.763 152.135 306.896 151.982 C 307.433 151.364 308.246 150.436 309.337 149.199 C 309.645 148.849 309.954 148.5 310.263 148.152 C 311.292 146.993 312.641 145.482 314.312 143.617 C 314.322 143.606 314.332 143.595 314.342 143.584 L 319.566 143.633 C 319.077 144.22 318.588 144.806 318.097 145.391 C 316.741 147.006 315.733 148.186 315.074 148.931 C 314.868 149.164 314.662 149.397 314.455 149.63 C 314.056 150.079 313.714 150.463 313.428 150.782 C 313.31 150.914 313.191 151.046 313.072 151.177 C 312.605 151.694 312.133 152.207 311.656 152.715 C 311.537 152.861 311.417 153.005 311.296 153.148 C 311.019 153.475 310.682 153.863 310.284 154.312 C 310.091 154.529 309.897 154.745 309.703 154.961 C 309.463 155.228 309.223 155.496 308.983 155.764 C 308.446 156.364 307.822 157.063 307.112 157.862 C 306.771 158.246 306.43 158.63 306.09 159.014 L 324.742 190.996 Z" id="14"/>
    <path stroke="#FFF" fill="transparent" stroke-width="2" d="M 330.699 187.725 L 332.262 184.063 L 334.117 184.844 C 334.724 185.101 335.334 185.348 335.948 185.587 C 336.151 185.666 336.355 185.744 336.559 185.82 C 337.438 186.081 338.251 186.309 339 186.504 C 339.74 186.691 340.492 186.828 341.25 186.912 C 341.735 186.965 342.223 186.992 342.711 186.992 C 343.683 186.998 344.654 186.897 345.604 186.691 C 346.509 186.493 347.383 186.176 348.204 185.747 C 349.248 185.206 350.209 184.516 351.056 183.7 C 351.426 183.341 351.77 182.956 352.086 182.549 C 353.127 181.214 353.827 179.717 354.186 178.057 C 354.315 177.494 354.394 176.92 354.421 176.343 C 354.427 176.214 354.43 176.086 354.43 175.957 C 354.433 175.173 354.336 174.391 354.141 173.631 C 354.11 173.51 354.076 173.39 354.039 173.271 C 353.583 171.578 352.639 170.057 351.207 168.706 C 350.491 168.041 349.691 167.473 348.828 167.016 C 347.791 166.456 346.599 165.986 345.25 165.605 L 341.832 164.824 C 340.72 164.479 339.634 164.056 338.583 163.556 C 337.454 163.014 336.447 162.403 335.563 161.724 C 335.319 161.537 335.081 161.341 334.85 161.138 C 334.064 160.456 333.361 159.685 332.753 158.84 C 332.117 157.954 331.622 156.974 331.285 155.937 C 330.924 154.998 330.702 154.012 330.626 153.009 C 330.61 152.781 330.602 152.553 330.602 152.324 C 330.601 151.552 330.683 150.783 330.846 150.029 C 331.31 148.059 332.249 146.232 333.58 144.707 C 334.526 143.674 335.629 142.796 336.847 142.105 C 337.355 141.813 337.878 141.549 338.414 141.313 C 339.685 140.76 341.026 140.386 342.4 140.201 C 343.296 140.078 344.2 140.017 345.104 140.02 C 346.083 140.023 347.06 140.095 348.029 140.236 C 348.851 140.354 349.667 140.51 350.475 140.703 C 350.884 140.806 351.29 140.916 351.695 141.033 C 352.137 141.161 352.576 141.295 353.014 141.436 C 353.222 141.505 353.429 141.576 353.635 141.648 C 353.838 141.72 354.027 141.789 354.202 141.856 C 354.303 141.894 354.403 141.933 354.503 141.973 C 354.718 142.059 354.932 142.148 355.144 142.241 C 355.379 142.344 355.613 142.45 355.846 142.559 C 356.171 142.689 356.708 142.917 357.457 143.242 L 355.895 146.953 L 354.088 146.172 C 353.529 145.914 352.957 145.684 352.375 145.482 C 352.182 145.415 351.988 145.352 351.793 145.293 C 351.381 145.155 350.966 145.026 350.549 144.904 C 350.314 144.835 350.077 144.77 349.84 144.707 C 349.764 144.707 349.678 144.697 349.583 144.678 C 349.555 144.672 349.526 144.665 349.498 144.658 C 348.629 144.452 347.747 144.303 346.859 144.21 C 346.292 144.152 345.722 144.122 345.152 144.121 C 344.306 144.117 343.462 144.182 342.627 144.316 C 341.76 144.454 340.912 144.691 340.099 145.024 C 339.376 145.32 338.688 145.693 338.045 146.137 C 337.502 146.514 337.003 146.951 336.559 147.441 C 336.038 148.028 335.607 148.688 335.279 149.4 C 335.067 149.867 334.907 150.357 334.801 150.859 C 334.702 151.324 334.653 151.799 334.654 152.275 C 334.654 153.056 334.784 153.838 335.045 154.619 C 335.323 155.378 335.723 156.086 336.23 156.715 C 336.632 157.224 337.112 157.718 337.67 158.195 C 337.762 158.274 337.856 158.352 337.95 158.428 C 338.609 158.953 339.321 159.406 340.075 159.781 C 341.178 160.339 342.464 160.816 343.932 161.211 C 344.239 161.282 344.547 161.346 344.856 161.403 C 344.955 161.421 345.053 161.438 345.152 161.455 C 345.905 161.613 346.652 161.794 347.393 161.999 C 347.444 162.013 347.494 162.027 347.545 162.041 C 348.681 162.422 349.784 162.896 350.841 163.46 C 352.294 164.244 353.522 165.163 354.527 166.216 C 355.546 167.269 356.397 168.471 357.053 169.781 C 357.427 170.539 357.726 171.332 357.945 172.148 C 358.245 173.301 358.409 174.485 358.432 175.676 C 358.433 175.753 358.434 175.831 358.434 175.908 C 358.434 176.917 358.336 177.91 358.141 178.887 C 357.627 181.118 356.645 183.215 355.26 185.039 C 353.953 186.739 352.298 188.142 350.406 189.152 C 350.275 189.223 350.144 189.292 350.011 189.36 C 348.38 190.184 346.611 190.701 344.793 190.887 C 344.118 190.96 343.439 190.997 342.76 190.996 C 341.759 190.993 340.76 190.916 339.771 190.765 C 339.218 190.682 338.667 190.58 338.121 190.459 C 337.699 190.361 337.281 190.248 336.867 190.12 C 336.493 190.006 336.104 189.876 335.699 189.731 C 335.562 189.682 335.425 189.631 335.289 189.58 C 334.508 189.319 333.84 189.083 333.287 188.872 C 332.754 188.669 331.935 188.307 330.829 187.786 C 330.786 187.766 330.742 187.745 330.699 187.725 Z" id="15"/>
    <path stroke="#FFF" fill="transparent" stroke-width="2" d="M 413.854 152.52 L 413.854 143.633 L 417.857 143.633 L 417.857 191.045 L 413.854 191.045 L 413.854 179.912 C 413.101 181.268 412.177 182.522 411.105 183.643 C 410.48 184.302 409.816 184.923 409.117 185.503 C 407.523 186.82 405.77 187.932 403.899 188.813 C 403.241 189.126 402.571 189.415 401.891 189.678 C 399.241 190.696 396.432 191.239 393.594 191.283 C 393.397 191.287 393.201 191.289 393.004 191.289 C 388.611 191.334 384.293 190.16 380.528 187.896 C 376.812 185.678 373.721 182.553 371.544 178.813 C 369.314 175.021 368.199 170.83 368.199 166.24 C 368.199 161.65 369.314 157.459 371.544 153.667 C 373.774 149.875 376.769 146.848 380.528 144.585 C 384.292 142.321 388.611 141.146 393.004 141.191 C 396.161 141.191 399.124 141.72 401.891 142.778 C 403.625 143.433 405.286 144.266 406.848 145.264 C 407.638 145.772 408.395 146.328 409.117 146.929 C 410.159 147.79 411.12 148.745 411.986 149.783 C 412.694 150.634 413.319 151.551 413.854 152.52 Z M 393.004 187.236 C 396.69 187.278 400.316 186.298 403.478 184.404 C 406.619 182.516 409.117 179.985 410.973 176.812 C 412.808 173.658 413.768 170.071 413.755 166.422 C 413.756 166.361 413.756 166.301 413.756 166.24 C 413.782 163.311 413.192 160.41 412.023 157.724 C 411.712 157.02 411.362 156.334 410.973 155.669 C 409.117 152.495 406.619 149.964 403.478 148.076 C 400.316 146.182 396.69 145.202 393.004 145.244 C 390.34 145.222 387.696 145.714 385.219 146.695 C 384.273 147.076 383.357 147.529 382.481 148.052 C 379.34 149.923 376.842 152.446 374.986 155.62 C 373.207 158.682 372.251 162.152 372.209 165.693 C 372.205 165.875 372.203 166.058 372.203 166.24 C 372.203 170.147 373.139 173.687 375.011 176.86 C 376.831 179.983 379.42 182.588 382.53 184.429 C 385.698 186.308 389.321 187.279 393.004 187.236 Z" id="16"/>
    <path stroke="#FFF" fill="transparent" stroke-width="2" d="M 478.746 165.313 L 478.746 191.045 L 474.693 191.045 L 474.693 166.24 C 474.703 164.079 474.448 161.925 473.935 159.826 C 473.781 159.206 473.602 158.593 473.399 157.988 C 472.836 156.286 472.081 154.653 471.147 153.123 C 470.738 152.458 470.292 151.816 469.811 151.201 C 468.889 150.039 467.82 149.002 466.632 148.115 C 465.905 147.577 465.13 147.106 464.317 146.709 C 462.866 145.988 461.305 145.513 459.698 145.302 C 459.133 145.231 458.564 145.195 457.994 145.195 C 455.818 145.202 453.672 145.703 451.719 146.662 C 451.687 146.678 451.654 146.693 451.622 146.709 C 449.97 147.525 448.476 148.629 447.21 149.968 C 446.832 150.363 446.471 150.774 446.129 151.201 C 444.11 153.785 442.685 156.781 441.955 159.978 C 441.601 161.475 441.364 162.997 441.246 164.531 L 441.246 191.045 L 437.242 191.045 L 437.242 143.633 L 441.246 143.633 L 441.246 151.104 C 441.441 150.778 442.011 149.98 442.955 148.711 C 444.079 147.322 445.366 146.073 446.789 144.992 C 447.773 144.25 448.828 143.607 449.938 143.071 C 452.542 141.818 455.211 141.191 457.945 141.191 C 460.631 141.2 463.283 141.802 465.709 142.956 C 465.791 142.994 465.872 143.032 465.953 143.071 C 467.958 144.048 469.782 145.359 471.346 146.949 C 471.905 147.51 472.435 148.098 472.936 148.711 C 475.528 152.007 477.295 155.875 478.089 159.992 C 478.444 161.746 478.663 163.525 478.746 165.313 Z" id="17"/>
    <path stroke="#FFF" fill="transparent" stroke-width="2" d="M 535.875 152.568 L 535.875 121.758 L 539.879 121.758 L 539.879 191.045 L 535.875 191.045 L 535.875 179.912 C 535.15 181.212 534.253 182.408 533.209 183.469 C 532.274 184.437 531.182 185.377 529.933 186.289 C 529.254 186.784 528.556 187.255 527.843 187.7 C 524.001 190.098 519.553 191.343 515.025 191.289 C 510.624 191.341 506.296 190.166 502.525 187.896 C 498.82 185.673 495.738 182.548 493.565 178.813 C 491.336 175.021 490.221 170.83 490.221 166.24 C 490.221 161.618 491.336 157.411 493.565 153.618 C 495.795 149.826 498.782 146.807 502.525 144.561 C 506.269 142.314 510.436 141.191 515.025 141.191 C 519.55 141.136 523.996 142.373 527.843 144.756 C 529.079 145.517 530.261 146.362 531.38 147.287 C 533.373 148.95 534.871 150.71 535.875 152.568 Z M 515.025 187.236 C 518.834 187.236 522.309 186.292 525.45 184.404 C 528.591 182.516 531.098 179.977 532.97 176.787 C 534.843 173.59 535.814 169.945 535.777 166.24 C 535.777 162.367 534.849 158.835 532.994 155.645 C 531.139 152.454 528.632 149.923 525.475 148.052 C 522.314 146.179 518.699 145.208 515.025 145.244 C 511.343 145.202 507.719 146.173 504.552 148.052 C 501.411 149.923 498.904 152.454 497.032 155.645 C 495.154 158.857 494.184 162.519 494.225 166.24 C 494.188 169.945 495.159 173.59 497.032 176.787 C 498.851 179.924 501.439 182.545 504.552 184.404 C 507.714 186.298 511.339 187.278 515.025 187.236 Z" id="18"/>
    <path stroke="#FFF" fill="transparent" stroke-width="2" d="M 563.805 166.484 L 563.805 191.045 L 559.801 191.045 L 559.801 167.363 L 559.459 167.363 L 559.801 166.68 L 559.801 143.633 L 563.805 143.633 L 563.805 152.422 C 564.791 150.664 566.077 149.092 567.605 147.778 C 568.875 146.658 570.363 145.611 572.07 144.636 C 573.223 143.982 574.408 143.386 575.621 142.852 L 575.621 147.246 C 573.114 148.509 570.869 150.233 569.002 152.329 C 568.346 153.073 567.743 153.863 567.198 154.692 C 565.248 157.672 564.11 161.109 563.895 164.664 C 563.878 164.912 563.864 165.161 563.854 165.41 L 563.805 166.484 Z" id="19"/>
    <path stroke="#FFF" fill="transparent" stroke-width="2" d="M 624.303 152.52 L 624.303 143.633 L 628.307 143.633 L 628.307 191.045 L 624.303 191.045 L 624.303 179.912 C 623.55 181.268 622.626 182.522 621.554 183.643 C 620.929 184.302 620.265 184.923 619.566 185.503 C 617.972 186.82 616.219 187.932 614.348 188.813 C 613.69 189.126 613.02 189.415 612.34 189.678 C 609.69 190.696 606.881 191.239 604.043 191.283 C 603.846 191.287 603.65 191.289 603.453 191.289 C 599.061 191.334 594.742 190.159 590.978 187.896 C 587.262 185.678 584.17 182.553 581.993 178.813 C 579.763 175.021 578.648 170.83 578.648 166.24 C 578.648 161.65 579.763 157.459 581.993 153.667 C 584.223 149.875 587.218 146.848 590.978 144.585 C 594.742 142.321 599.061 141.146 603.453 141.191 C 606.61 141.191 609.573 141.72 612.34 142.778 C 614.074 143.433 615.736 144.266 617.298 145.264 C 618.087 145.772 618.845 146.328 619.566 146.929 C 620.608 147.79 621.569 148.745 622.435 149.783 C 623.143 150.634 623.768 151.551 624.303 152.52 Z M 603.453 187.236 C 607.139 187.278 610.765 186.298 613.927 184.404 C 617.068 182.516 619.567 179.985 621.422 176.812 C 623.257 173.658 624.217 170.071 624.204 166.422 C 624.205 166.361 624.205 166.301 624.205 166.24 C 624.231 163.311 623.641 160.41 622.472 157.724 C 622.161 157.02 621.811 156.334 621.422 155.669 C 619.567 152.495 617.068 149.964 613.927 148.076 C 610.765 146.182 607.139 145.202 603.453 145.244 C 600.789 145.222 598.145 145.714 595.668 146.695 C 594.722 147.076 593.807 147.529 592.931 148.052 C 589.79 149.923 587.291 152.446 585.436 155.62 C 583.657 158.682 582.7 162.152 582.658 165.693 C 582.654 165.875 582.652 166.058 582.652 166.24 C 582.652 170.147 583.588 173.687 585.46 176.86 C 587.28 179.983 589.869 182.588 592.979 184.429 C 596.147 186.308 599.77 187.279 603.453 187.236 Z" id="20"/>
    <path stroke="#FFF" fill="transparent" stroke-width="2" d="M 539.889 137.829 L 492.388 190.411" id="18-line" style="stroke-opacity: 0.5;" transform="matrix(-1, 0, 0, -1, 1032.276941, 328.240001)"/>
    <path stroke="#FFF" fill="transparent" stroke-width="2" d="M 540.207 191.28 L 488.074 140.108" id="path-1" style="stroke-opacity: 0.5;"/>
    </svg>
